<svg xmlns="http://www.w3.org/2000/svg" width="512" height="512" viewBox="0 0 512 512"><rect width="512" height="512" rx="96" fill="transparent"/><path d="M74 176 C115 84 176 112 214 172 C238 96 290 96 316 172 C356 112 417 84 438 176 C394 164 369 190 350 230 C332 300 296 348 256 348 C216 348 180 300 162 230 C143 190 118 164 74 176Z" fill="#050505" stroke="#14ffe0" stroke-width="10"/><path d="M208 252 L256 210 L304 252 L286 312 L226 312Z" fill="#37ff9a" opacity=".18"/><text x="256" y="442" text-anchor="middle" fill="#14ffe0" font-family="Arial" font-size="72" font-weight="900" letter-spacing="14">ZUBR</text></svg>