<svg xmlns="http://www.w3.org/2000/svg" width="1080" height="1350" viewBox="0 0 1080 1350">
<defs>
<radialGradient id="g1" cx="20%" cy="0%" r="70%"><stop offset="0" stop-color="#14ffe0" stop-opacity=".28"/><stop offset=".45" stop-color="#061313" stop-opacity=".92"/><stop offset="1" stop-color="#030607"/></radialGradient>
<radialGradient id="g2" cx="85%" cy="20%" r="65%"><stop offset="0" stop-color="#e8b95a" stop-opacity=".22"/><stop offset=".55" stop-color="#07110f" stop-opacity=".2"/><stop offset="1" stop-color="#000" stop-opacity="0"/></radialGradient>
<filter id="glow"><feGaussianBlur stdDeviation="6" result="b"/><feMerge><feMergeNode in="b"/><feMergeNode in="SourceGraphic"/></feMerge></filter>
</defs>
<rect width="100%" height="100%" fill="url(#g1)"/>
<rect width="100%" height="100%" fill="url(#g2)"/>
<g opacity=".25"><path d="M 0 0 H 1080" stroke="#14ffe0" stroke-width="1"/><path d="M 0 80 H 1080" stroke="#14ffe0" stroke-width="1"/><path d="M 0 160 H 1080" stroke="#14ffe0" stroke-width="1"/><path d="M 0 240 H 1080" stroke="#14ffe0" stroke-width="1"/><path d="M 0 320 H 1080" stroke="#14ffe0" stroke-width="1"/><path d="M 0 400 H 1080" stroke="#14ffe0" stroke-width="1"/><path d="M 0 480 H 1080" stroke="#14ffe0" stroke-width="1"/><path d="M 0 560 H 1080" stroke="#14ffe0" stroke-width="1"/><path d="M 0 640 H 1080" stroke="#14ffe0" stroke-width="1"/><path d="M 0 720 H 1080" stroke="#14ffe0" stroke-width="1"/><path d="M 0 800 H 1080" stroke="#14ffe0" stroke-width="1"/><path d="M 0 880 H 1080" stroke="#14ffe0" stroke-width="1"/><path d="M 0 0 V 1350" stroke="#14ffe0" stroke-width="1"/><path d="M 80 0 V 1350" stroke="#14ffe0" stroke-width="1"/><path d="M 160 0 V 1350" stroke="#14ffe0" stroke-width="1"/><path d="M 240 0 V 1350" stroke="#14ffe0" stroke-width="1"/><path d="M 320 0 V 1350" stroke="#14ffe0" stroke-width="1"/><path d="M 400 0 V 1350" stroke="#14ffe0" stroke-width="1"/><path d="M 480 0 V 1350" stroke="#14ffe0" stroke-width="1"/><path d="M 560 0 V 1350" stroke="#14ffe0" stroke-width="1"/><path d="M 640 0 V 1350" stroke="#14ffe0" stroke-width="1"/><path d="M 720 0 V 1350" stroke="#14ffe0" stroke-width="1"/><path d="M 800 0 V 1350" stroke="#14ffe0" stroke-width="1"/><path d="M 880 0 V 1350" stroke="#14ffe0" stroke-width="1"/><path d="M 960 0 V 1350" stroke="#14ffe0" stroke-width="1"/><path d="M 1040 0 V 1350" stroke="#14ffe0" stroke-width="1"/><path d="M 1120 0 V 1350" stroke="#14ffe0" stroke-width="1"/><path d="M 1200 0 V 1350" stroke="#14ffe0" stroke-width="1"/><path d="M 1280 0 V 1350" stroke="#14ffe0" stroke-width="1"/><path d="M 1360 0 V 1350" stroke="#14ffe0" stroke-width="1"/><path d="M 1440 0 V 1350" stroke="#14ffe0" stroke-width="1"/><path d="M 1520 0 V 1350" stroke="#14ffe0" stroke-width="1"/><path d="M 1600 0 V 1350" stroke="#14ffe0" stroke-width="1"/><path d="M 1680 0 V 1350" stroke="#14ffe0" stroke-width="1"/></g>
<path d="M0 720 C270 610 360 760 610 655 C890 538 1070 700 1600 560 L1600 900 L0 900Z" fill="#020403" opacity=".92"/>
<path d="M0 690 C260 585 375 720 610 618 C900 498 1040 660 1600 520" fill="none" stroke="#37ff9a" stroke-width="3" opacity=".45"/>
<text x="90" y="138" fill="#37ff9a" font-size="26" font-family="Arial" font-weight="900" letter-spacing="8">GENESIS GUARDIAN</text>
<text x="90" y="250" fill="#fff" font-size="88" font-family="Arial" font-weight="900" letter-spacing="2">#012 The Aurora Builder</text>
<text x="92" y="318" fill="#e8b95a" font-size="38" font-family="Arial" font-weight="900">Строитель Авроры</text>
<g filter="url(#glow)"><circle cx="1260" cy="350" r="190" fill="none" stroke="#14ffe0" stroke-width="3" opacity=".7"/><circle cx="1260" cy="350" r="125" fill="none" stroke="#e8b95a" stroke-width="3" opacity=".5"/></g>
<text x="1260" y="355" text-anchor="middle" fill="#14ffe0" font-size="70" font-family="Arial" font-weight="900">ZUBR</text>
<text x="1260" y="410" text-anchor="middle" fill="#edf9f6" font-size="28" font-family="Arial" font-weight="900">GENESIS</text>
<g><rect x="1030" y="170" width="96" height="96" rx="16" fill="rgba(20,255,224,0.08)" stroke="rgba(20,255,224,.28)"/><text x="1078" y="230" fill="#e8b95a" font-size="28" text-anchor="middle" font-family="Arial" font-weight="900">1</text><rect x="1160" y="170" width="96" height="96" rx="16" fill="rgba(20,255,224,0.095)" stroke="rgba(20,255,224,.28)"/><text x="1208" y="230" fill="#e8b95a" font-size="28" text-anchor="middle" font-family="Arial" font-weight="900">2</text><rect x="1290" y="170" width="96" height="96" rx="16" fill="rgba(20,255,224,0.11)" stroke="rgba(20,255,224,.28)"/><text x="1338" y="230" fill="#e8b95a" font-size="28" text-anchor="middle" font-family="Arial" font-weight="900">3</text><rect x="1030" y="290" width="96" height="96" rx="16" fill="rgba(20,255,224,0.125)" stroke="rgba(20,255,224,.28)"/><text x="1078" y="350" fill="#e8b95a" font-size="28" text-anchor="middle" font-family="Arial" font-weight="900">4</text><rect x="1160" y="290" width="96" height="96" rx="16" fill="rgba(20,255,224,0.14)" stroke="rgba(20,255,224,.28)"/><text x="1208" y="350" fill="#e8b95a" font-size="28" text-anchor="middle" font-family="Arial" font-weight="900">5</text><rect x="1290" y="290" width="96" height="96" rx="16" fill="rgba(20,255,224,0.155)" stroke="rgba(20,255,224,.28)"/><text x="1338" y="350" fill="#e8b95a" font-size="28" text-anchor="middle" font-family="Arial" font-weight="900">6</text><rect x="1030" y="410" width="96" height="96" rx="16" fill="rgba(20,255,224,0.16999999999999998)" stroke="rgba(20,255,224,.28)"/><text x="1078" y="470" fill="#e8b95a" font-size="28" text-anchor="middle" font-family="Arial" font-weight="900">7</text><rect x="1160" y="410" width="96" height="96" rx="16" fill="rgba(20,255,224,0.185)" stroke="rgba(20,255,224,.28)"/><text x="1208" y="470" fill="#e8b95a" font-size="28" text-anchor="middle" font-family="Arial" font-weight="900">8</text><rect x="1290" y="410" width="96" height="96" rx="16" fill="rgba(20,255,224,0.2)" stroke="rgba(20,255,224,.28)"/><text x="1338" y="470" fill="#e8b95a" font-size="28" text-anchor="middle" font-family="Arial" font-weight="900">9</text></g>
<text x="90" y="520" fill="rgba(237,249,246,.78)" font-size="30" font-family="Arial" font-weight="700">Строитель Авроры</text><text x="90" y="562" fill="rgba(237,249,246,.78)" font-size="30" font-family="Arial" font-weight="700">Role: Epic Guardian</text><text x="90" y="604" fill="rgba(237,249,246,.78)" font-size="30" font-family="Arial" font-weight="700">Code: ZUBR-012-GENESIS</text><text x="90" y="646" fill="rgba(237,249,246,.78)" font-size="30" font-family="Arial" font-weight="700">Land access: Beyond Ice Archive</text>
<text x="90" y="820" fill="rgba(237,249,246,.55)" font-size="24" font-family="Arial" font-weight="700">ZUBR-AI.COM / BEYOND ICE LANDS ARCHIVE</text>
</svg>